# xmcd
#
# Track frame offsets: 
#        150
#        15367
#        30472
#        52757
#        70290
#        88187
#        106697
#        126705
#        149212
#        171690
#        184860
#        197097
#
# Disc length: 3173 seconds
#
# Revision: 0
# Processed by: cddbd v1.5.2PL0 Copyright (c) Steve Scherf et al.
# Submitted via: ExactAudioCopy v0.99pb4
#
DISCID=af0c630c
DTITLE=Various Artist - Southern Rock Classics
DYEAR=2003
DGENRE=Country
TTITLE0=Georgia Satellites - Keep Your Hands To Yourself
TTITLE1=The Fabulous Thunderbirds - Tuff Enuff
TTITLE2=The Allman Brothers Band - One Way Out
TTITLE3=Rossington Collins Band - Don't Misunderstand Me
TTITLE4=Charlie Daniels Band - The South's Gonna Do It Again
TTITLE5=Atlanta Rhythm Section - I'm Not Gonna Let It Bother Me Tonigh
TTITLE5=t
TTITLE6=Blackfoot - Highway Song
TTITLE7=38 Special - Second Chance
TTITLE8=Molly Hatchet - Flirtin' With Disaster
TTITLE9=Poco - Crazy Love
TTITLE10=Pure Prairie League - Let Me Love You Tonight
TTITLE11=Lynyrd Skynyrd - Free Bird
EXTD=
EXTT0=
EXTT1=
EXTT2=
EXTT3=
EXTT4=
EXTT5=
EXTT6=
EXTT7=
EXTT8=
EXTT9=
EXTT10=
EXTT11=
PLAYORDER=
